<?xml version="1.0" encoding="UTF-8" standalone="no"?>
<!-- Created with Inkscape (http://www.inkscape.org/) -->
<svg xmlns:inkscape="http://www.inkscape.org/namespaces/inkscape" xmlns:rdf="http://www.w3.org/1999/02/22-rdf-syntax-ns#" xmlns="http://www.w3.org/2000/svg" xmlns:xlink="http://www.w3.org/1999/xlink" xmlns:ns1="http://sozi.baierouge.fr" xmlns:cc="http://creativecommons.org/ns#" xmlns:sodipodi="http://sodipodi.sourceforge.net/DTD/sodipodi-0.dtd" xmlns:dc="http://purl.org/dc/elements/1.1/" id="svg2" xml:space="preserve" viewBox="0 0 71.35 83.7" version="1.1" inkscape:version="0.91 r13725">
  <defs id="defs6">
    <linearGradient id="linearGradient24" y2="-15678" gradientUnits="userSpaceOnUse" x2="16901" gradientTransform="matrix(-.79776 .05936 -.05936 -.79776 12548 -13473)" y1="-15678" x1="16878">
      <stop id="stop26" style="stop-color:#bdbdb9" offset="0"/>
      <stop id="stop28" style="stop-color:#3b3b38" offset=".87840"/>
      <stop id="stop32" style="stop-color:#3b3b38" offset="1"/>
    </linearGradient>
    <linearGradient id="linearGradient46" y2="-1.5166" gradientUnits="userSpaceOnUse" x2="15.4" gradientTransform="matrix(.8 0 0 .8 9.5207 30.08)" y1="-1.5166" x1="-12.1">
      <stop id="stop48" style="stop-color:#a1a1a1" offset="0"/>
      <stop id="stop50" style="stop-color:#bdbdb9" offset=".1608"/>
      <stop id="stop52" style="stop-color:#3b3b38" offset=".87840"/>
      <stop id="stop54" style="stop-color:#828280" offset="1"/>
    </linearGradient>
    <linearGradient id="linearGradient70" y2="5.25" gradientUnits="userSpaceOnUse" x2="-.59990" gradientTransform="matrix(.8 0 0 .8 9.5207 30.08)" y1="5.25" x1="-10.4">
      <stop id="stop72" style="stop-color:#787876" offset="0"/>
      <stop id="stop74" style="stop-color:#262625" offset="1"/>
    </linearGradient>
    <radialGradient id="radialGradient88" gradientUnits="userSpaceOnUse" cy="-9406.7" cx="-3334" gradientTransform="matrix(.49928 -.62504 -.62504 -.49928 -4188.4 -6715.8)" r="5.3275">
      <stop id="stop90" style="stop-color:#bdbdb9" offset="0"/>
      <stop id="stop92" style="stop-color:#787871" offset=".87840"/>
      <stop id="stop96" style="stop-color:#787871" offset="1"/>
    </radialGradient>
    <linearGradient id="linearGradient110" y2="-4.0996" gradientUnits="userSpaceOnUse" x2="19.625" gradientTransform="matrix(.8 0 0 .8 27.481 33.52)" y1="-4.0996" x1="-17.45">
      <stop id="stop112" style="stop-color:#a1a1a1" offset="0"/>
      <stop id="stop114" style="stop-color:#bdbdb9" offset=".1608"/>
      <stop id="stop116" style="stop-color:#3b3b38" offset=".87840"/>
      <stop id="stop118" style="stop-color:#828280" offset="1"/>
    </linearGradient>
    <linearGradient id="linearGradient136" y2="28.2" gradientUnits="userSpaceOnUse" x2="3.6877" gradientTransform="matrix(.8 0 0 .8 27.481 33.52)" y1="28.2" x1="-2.9873">
      <stop id="stop138" style="stop-color:#787876" offset="0"/>
      <stop id="stop140" style="stop-color:#262625" offset="1"/>
    </linearGradient>
    <linearGradient id="linearGradient154" y2="23.875" gradientUnits="userSpaceOnUse" x2="6.5627" gradientTransform="matrix(.8 0 0 .8 27.481 33.52)" y1="23.875" x1="-5.8623">
      <stop id="stop156" style="stop-color:#787876" offset="0"/>
      <stop id="stop158" style="stop-color:#262625" offset="1"/>
    </linearGradient>
    <linearGradient id="linearGradient172" y2="5.2324" gradientUnits="userSpaceOnUse" x2="16.25" gradientTransform="matrix(.8 0 0 .8 27.481 33.52)" y1="5.2324" x1="-13.75">
      <stop id="stop174" style="stop-color:#91918f" offset="0"/>
      <stop id="stop176" style="stop-color:#262625" offset="1"/>
    </linearGradient>
    <radialGradient id="radialGradient192" gradientUnits="userSpaceOnUse" cy="-2521.2" cx="-1928.1" gradientTransform="matrix(.76952 -.21888 -.21888 -.76952 955.8 -2311.6)" r="1.4165">
      <stop id="stop194" style="stop-color:#bdbdb9" offset="0"/>
      <stop id="stop196" style="stop-color:#787871" offset=".87840"/>
      <stop id="stop200" style="stop-color:#787871" offset="1"/>
    </radialGradient>
    <radialGradient id="radialGradient214" gradientUnits="userSpaceOnUse" cy="-652.04" cx="-624.59" gradientTransform="matrix(.79744 -.06352 -.06352 -.79744 482.76 -509.38)" r="1.417">
      <stop id="stop216" style="stop-color:#bdbdb9" offset="0"/>
      <stop id="stop218" style="stop-color:#787871" offset=".87840"/>
      <stop id="stop222" style="stop-color:#787871" offset="1"/>
    </radialGradient>
    <radialGradient id="radialGradient236" gradientUnits="userSpaceOnUse" cy="-2526" cx="-1928.1" gradientTransform="matrix(.76952 -.21888 -.21888 -.76952 953.72 -2319)" r="1.4165">
      <stop id="stop238" style="stop-color:#bdbdb9" offset="0"/>
      <stop id="stop240" style="stop-color:#787871" offset=".87840"/>
      <stop id="stop244" style="stop-color:#787871" offset="1"/>
    </radialGradient>
    <radialGradient id="radialGradient260" gradientUnits="userSpaceOnUse" cy="-656.74" cx="-624.97" gradientTransform="matrix(.79744 -.06352 -.06352 -.79744 482.16 -516.86)" r="1.417">
      <stop id="stop262" style="stop-color:#bdbdb9" offset="0"/>
      <stop id="stop264" style="stop-color:#787871" offset=".87840"/>
      <stop id="stop268" style="stop-color:#787871" offset="1"/>
    </radialGradient>
    <radialGradient id="radialGradient284" gradientUnits="userSpaceOnUse" cy="-5.7002" cx="-8.2002" gradientTransform="matrix(.8 0 0 -.8 27.481 24.4)" r="1.4125">
      <stop id="stop286" style="stop-color:#bdbdb9" offset="0"/>
      <stop id="stop288" style="stop-color:#787871" offset=".87840"/>
      <stop id="stop292" style="stop-color:#787871" offset="1"/>
    </radialGradient>
    <radialGradient id="radialGradient306" gradientUnits="userSpaceOnUse" cy="-10.95" cx="-8.2002" gradientTransform="matrix(.8 0 0 -.8 27.481 16)" r="1.4125">
      <stop id="stop308" style="stop-color:#bdbdb9" offset="0"/>
      <stop id="stop310" style="stop-color:#787871" offset=".87840"/>
      <stop id="stop314" style="stop-color:#787871" offset="1"/>
    </radialGradient>
    <radialGradient id="radialGradient328" gradientUnits="userSpaceOnUse" cy="-6.1001" cx="-4.7998" gradientTransform="matrix(.8 0 0 -.8 27.481 23.76)" r="1.4125">
      <stop id="stop330" style="stop-color:#bdbdb9" offset="0"/>
      <stop id="stop332" style="stop-color:#787871" offset=".87840"/>
      <stop id="stop336" style="stop-color:#787871" offset="1"/>
    </radialGradient>
    <radialGradient id="radialGradient350" gradientUnits="userSpaceOnUse" cy="-11.35" cx="-4.7998" gradientTransform="matrix(.8 0 0 -.8 27.481 15.36)" r="1.4125">
      <stop id="stop352" style="stop-color:#bdbdb9" offset="0"/>
      <stop id="stop354" style="stop-color:#787871" offset=".87840"/>
      <stop id="stop358" style="stop-color:#787871" offset="1"/>
    </radialGradient>
    <radialGradient id="radialGradient372" gradientUnits="userSpaceOnUse" cy="-16.9" cx="-4.7998" gradientTransform="matrix(.8 0 0 -.8 27.481 6.4795)" r="1.4125">
      <stop id="stop374" style="stop-color:#bdbdb9" offset="0"/>
      <stop id="stop376" style="stop-color:#787871" offset=".87840"/>
      <stop id="stop380" style="stop-color:#787871" offset="1"/>
    </radialGradient>
    <radialGradient id="radialGradient394" gradientUnits="userSpaceOnUse" cy="-16.5" cx="-8.2002" gradientTransform="matrix(.8 0 0 -.8 27.481 7.1195)" r="1.4125">
      <stop id="stop396" style="stop-color:#bdbdb9" offset="0"/>
      <stop id="stop398" style="stop-color:#787871" offset=".87840"/>
      <stop id="stop402" style="stop-color:#787871" offset="1"/>
    </radialGradient>
    <radialGradient id="radialGradient416" gradientUnits="userSpaceOnUse" cy="-22.45" cx="-8.2002" gradientTransform="matrix(.8 0 0 -.8 27.481 -2.4005)" r="1.4125">
      <stop id="stop418" style="stop-color:#bdbdb9" offset="0"/>
      <stop id="stop420" style="stop-color:#787871" offset=".87840"/>
      <stop id="stop424" style="stop-color:#787871" offset="1"/>
    </radialGradient>
    <radialGradient id="radialGradient438" gradientUnits="userSpaceOnUse" cy="-22.85" cx="-4.7998" gradientTransform="matrix(.8 0 0 -.8 27.481 -3.0405)" r="1.4125">
      <stop id="stop440" style="stop-color:#bdbdb9" offset="0"/>
      <stop id="stop442" style="stop-color:#787871" offset=".87840"/>
      <stop id="stop446" style="stop-color:#787871" offset="1"/>
    </radialGradient>
    <radialGradient id="radialGradient460" gradientUnits="userSpaceOnUse" cy="-27.9" cx="-4.7998" gradientTransform="matrix(.8 0 0 -.8 27.481 -11.12)" r="1.4125">
      <stop id="stop462" style="stop-color:#bdbdb9" offset="0"/>
      <stop id="stop464" style="stop-color:#787871" offset=".87840"/>
      <stop id="stop468" style="stop-color:#787871" offset="1"/>
    </radialGradient>
    <radialGradient id="radialGradient482" gradientUnits="userSpaceOnUse" cy="-27.5" cx="-8.2002" gradientTransform="matrix(.8 0 0 -.8 27.481 -10.48)" r="1.4125">
      <stop id="stop484" style="stop-color:#bdbdb9" offset="0"/>
      <stop id="stop486" style="stop-color:#787871" offset=".87840"/>
      <stop id="stop490" style="stop-color:#787871" offset="1"/>
    </radialGradient>
    <radialGradient id="radialGradient504" gradientUnits="userSpaceOnUse" cy="-32.75" cx="-8.2002" gradientTransform="matrix(.8 0 0 -.8 27.481 -18.88)" r="1.4125">
      <stop id="stop506" style="stop-color:#bdbdb9" offset="0"/>
      <stop id="stop508" style="stop-color:#787871" offset=".87840"/>
      <stop id="stop512" style="stop-color:#787871" offset="1"/>
    </radialGradient>
    <linearGradient id="linearGradient526" y2="-36.5" gradientUnits="userSpaceOnUse" x2="17.1" gradientTransform="matrix(.8 0 0 .8 27.481 33.52)" y1="-36.5" x1="-16.65">
      <stop id="stop528" style="stop-color:#787876" offset="0"/>
      <stop id="stop530" style="stop-color:#262625" offset="1"/>
    </linearGradient>
    <radialGradient id="radialGradient544" gradientUnits="userSpaceOnUse" cy="-33.15" cx="-4.7998" gradientTransform="matrix(.8 0 0 -.8 27.481 -19.52)" r="1.4125">
      <stop id="stop546" style="stop-color:#bdbdb9" offset="0"/>
      <stop id="stop548" style="stop-color:#787871" offset=".87840"/>
      <stop id="stop552" style="stop-color:#787871" offset="1"/>
    </radialGradient>
    <radialGradient id="radialGradient566" gradientUnits="userSpaceOnUse" cy="-33.85" cx="-16.55" gradientTransform="matrix(.8 0 0 -1.3212 27.481 -38.284)" r="0.825">
      <stop id="stop568" style="stop-color:#80807d" offset="0"/>
      <stop id="stop570" style="stop-color:#474743" offset=".87840"/>
      <stop id="stop574" style="stop-color:#474743" offset="1"/>
    </radialGradient>
    <radialGradient id="radialGradient588" gradientUnits="userSpaceOnUse" cy="-35.2" cx="-14.6" gradientTransform="matrix(.8 0 0 -.91792 27.481 -26.951)" r="1.1875">
      <stop id="stop590" style="stop-color:#80807d" offset="0"/>
      <stop id="stop592" style="stop-color:#474743" offset=".87840"/>
      <stop id="stop596" style="stop-color:#474743" offset="1"/>
    </radialGradient>
    <radialGradient id="radialGradient610" gradientUnits="userSpaceOnUse" cy="-36.55" cx="-11.7" gradientTransform="matrix(.8 0 0 -.77168 27.481 -23.925)" r="1.4125">
      <stop id="stop612" style="stop-color:#80807d" offset="0"/>
      <stop id="stop614" style="stop-color:#474743" offset=".87840"/>
      <stop id="stop618" style="stop-color:#474743" offset="1"/>
    </radialGradient>
    <radialGradient id="radialGradient632" gradientUnits="userSpaceOnUse" cy="-38.3" cx="-3.6499" gradientTransform="matrix(.8 0 0 -.77168 27.481 -26.676)" r="1.4125">
      <stop id="stop634" style="stop-color:#80807d" offset="0"/>
      <stop id="stop636" style="stop-color:#474743" offset=".87840"/>
      <stop id="stop640" style="stop-color:#474743" offset="1"/>
    </radialGradient>
    <radialGradient id="radialGradient654" gradientUnits="userSpaceOnUse" cy="-37.55" cx="-8.1499" gradientTransform="matrix(.8 0 0 -.77168 27.481 -25.496)" r="1.4125">
      <stop id="stop656" style="stop-color:#80807d" offset="0"/>
      <stop id="stop658" style="stop-color:#474743" offset=".87840"/>
      <stop id="stop662" style="stop-color:#474743" offset="1"/>
    </radialGradient>
    <radialGradient id="radialGradient676" gradientUnits="userSpaceOnUse" cy="-35.95" cx="12.95" gradientTransform="matrix(.8 0 0 -.77168 27.481 -22.983)" r="1.4125">
      <stop id="stop678" style="stop-color:#4f4f4c" offset="0"/>
      <stop id="stop680" style="stop-color:#242421" offset=".87840"/>
      <stop id="stop684" style="stop-color:#242421" offset="1"/>
    </radialGradient>
    <radialGradient id="radialGradient698" gradientUnits="userSpaceOnUse" cy="-34.2" cx="16.3" gradientTransform="matrix(.8 0 0 -.77168 27.481 -20.232)" r="1.4125">
      <stop id="stop700" style="stop-color:#4f4f4c" offset="0"/>
      <stop id="stop702" style="stop-color:#242421" offset=".87840"/>
      <stop id="stop706" style="stop-color:#242421" offset="1"/>
    </radialGradient>
    <radialGradient id="radialGradient720" gradientUnits="userSpaceOnUse" cy="-38.05" cx="5.1001" gradientTransform="matrix(.8 0 0 -.77168 27.481 -26.283)" r="1.4125">
      <stop id="stop722" style="stop-color:#80807d" offset="0"/>
      <stop id="stop724" style="stop-color:#474743" offset=".87840"/>
      <stop id="stop728" style="stop-color:#474743" offset="1"/>
    </radialGradient>
    <radialGradient id="radialGradient742" gradientUnits="userSpaceOnUse" cy="-37.3" cx="9.1001" gradientTransform="matrix(.8 0 0 -.77168 27.481 -25.104)" r="1.4125">
      <stop id="stop744" style="stop-color:#575754" offset="0"/>
      <stop id="stop746" style="stop-color:#30302d" offset=".87840"/>
      <stop id="stop750" style="stop-color:#30302d" offset="1"/>
    </radialGradient>
    <radialGradient id="radialGradient764" gradientUnits="userSpaceOnUse" cy="-38.45" cx=".85010" gradientTransform="matrix(.8 0 0 -.77168 27.481 -26.912)" r="1.4125">
      <stop id="stop766" style="stop-color:#80807d" offset="0"/>
      <stop id="stop768" style="stop-color:#474743" offset=".87840"/>
      <stop id="stop772" style="stop-color:#474743" offset="1"/>
    </radialGradient>
    <linearGradient id="linearGradient794" y2="-0.0752" gradientUnits="userSpaceOnUse" x2="12.65" gradientTransform="matrix(.8 0 0 .8 46.961 16.28)" y1="-0.0752" x1="-12.538">
      <stop id="stop796" style="stop-color:#a1a1a1" offset="0"/>
      <stop id="stop798" style="stop-color:#4a4a47" offset=".87840"/>
      <stop id="stop800" style="stop-color:#828280" offset="1"/>
    </linearGradient>
    <linearGradient id="linearGradient814" y2="-7.5996" gradientUnits="userSpaceOnUse" x2="11.987" gradientTransform="matrix(.8 0 0 .8 46.961 16.28)" y1="-7.5996" x1="1.2124">
      <stop id="stop816" style="stop-color:#575755" offset="0"/>
      <stop id="stop818" style="stop-color:#262625" offset="1"/>
    </linearGradient>
  </defs>
  <g id="g10" transform="matrix(1.25 0 0 -1.25 0 83.7)">
    <g id="g12">
      <g id="g14">
        <g id="g16">
          <g id="g22">
            <path id="path34" style="fill-rule:evenodd;fill:url(#linearGradient24)" d="m9.641 37.679c-1.602-0.852-3.426-1.199-5.481-1.039-1.57 0.105-2.734 0.359-3.48 0.761l-0.68 0.559c0.082 0.16 0.242 0.348 0.48 0.559 0.426 0.457 0.973 0.828 1.641 1.121 1.039 0.453 2.027 0.679 2.961 0.679 0.641 0 1.465-0.144 2.48-0.437 0.692-0.215 1.25-0.641 1.68-1.281 0.211-0.321 0.36-0.614 0.438-0.879l-0.039-0.043z" inkscape:connector-curvature="0"/>
          </g>
        </g>
      </g>
      <g id="g36">
        <g id="g38">
          <g id="g44">
            <path id="path56" style="fill-rule:evenodd;fill:url(#linearGradient46)" d="m9.68 37.722-0.438-2.16 0.117 0.757c-1.519-1.039-3.105-1.558-4.757-1.558-1.469 0-2.895 0.414-4.282 1.238l-0.32 1.961 0.602-0.758c0.718-0.535 1.867-0.828 3.437-0.883 1.602-0.078 2.906 0.067 3.922 0.442 0.535 0.215 1.094 0.519 1.68 0.918l0.039 0.043zm-8.957-4.364c0.824-0.746 2.105-1.117 3.839-1.117 1.68 0 3.118 0.438 4.317 1.321l0.043 0.238c-0.082-0.664-0.16-1.414-0.242-2.238-0.133-1.309-0.2-2.348-0.2-3.122 0-0.64 0.188-1.082 0.559-1.32 0.43-0.265 1.27-0.398 2.523-0.398l5.161-0.043c0.504-0.051 0.906-0.133 1.199-0.239 0.371-0.132 0.664-0.507 0.879-1.121 0.265-0.691 0.359-1.625 0.281-2.8-0.109-1.758-0.867-2.637-2.281-2.637-1.442-0.11-3.028-0.137-4.762-0.082-3.465 0.133-5.906 0.601-7.316 1.402-1.336 0.774-2.282 2.051-2.844 3.84-0.293 0.906-0.531 2.371-0.719 4.398-0.055 0.852-0.199 2.161-0.437 3.918z" inkscape:connector-curvature="0"/>
          </g>
        </g>
      </g>
      <path id="path58" style="fill-rule:evenodd;fill:#d1d1cc" d="m9.641 37.679c-0.586-0.399-1.145-0.703-1.68-0.918-1.016-0.375-2.32-0.52-3.922-0.442-1.57 0.055-2.719 0.348-3.437 0.883l-0.602 0.758 0.68-0.559c0.746-0.402 1.906-0.652 3.48-0.761 2.055-0.16 3.879 0.187 5.481 1.039z" inkscape:connector-curvature="0"/>
      <g id="g60">
        <g id="g62">
          <g id="g68">
            <path id="path76" style="fill-rule:evenodd;fill:url(#linearGradient70)" d="m9.242 35.562-0.32-1.762-0.043-0.238c-1.199-0.883-2.637-1.321-4.317-1.321-1.734 0-3.015 0.371-3.839 1.117l-0.043 0.043-0.399 2.641 0.039-0.043c1.387-0.824 2.813-1.238 4.282-1.238 1.652 0 3.238 0.519 4.757 1.558l-0.117-0.757z" inkscape:connector-curvature="0"/>
          </g>
        </g>
      </g>
      <g id="g78">
        <g id="g80">
          <g id="g86">
            <path id="path98" style="fill-rule:evenodd;fill:url(#radialGradient88)" d="m27.48 60.44c-0.105 0.028-0.187 0.04-0.238 0.04-0.64 0.132-1.187 0.441-1.64 0.921-0.641 0.637-0.961 1.411-0.961 2.317s0.32 1.668 0.961 2.281c0.613 0.641 1.371 0.961 2.277 0.961 0.91 0 1.668-0.32 2.281-0.961 0.641-0.613 0.961-1.375 0.961-2.281s-0.32-1.68-0.961-2.317c-0.504-0.507-1.094-0.816-1.758-0.921-0.16-0.028-0.336-0.04-0.523-0.04h-0.399z" inkscape:connector-curvature="0"/>
          </g>
        </g>
      </g>
      <g id="g100">
        <g id="g102">
          <g id="g108">
            <path id="path120" style="fill-rule:evenodd;fill:url(#linearGradient110)" d="m29.562 56.96c-0.589-0.082-1.242-0.121-1.96-0.121h-0.481c0.188 0.828 0.375 1.68 0.559 2.562 0.054 0.399 0.121 0.746 0.199 1.039 0.187 0 0.363 0.012 0.523 0.04 0.321-1.415 0.703-2.586 1.16-3.52zm-3.402-3.402c0.055 0.242 0.121 0.468 0.199 0.683 0.11 0.317 0.215 0.637 0.321 0.957h0.882c0.934 0 1.891 0.094 2.879 0.282l-0.16 0.281c0.293-0.453 0.84-1.27 1.641-2.442l-0.402 0.559c-1.387-0.238-2.719-0.359-4-0.359-0.454 0-0.907 0.015-1.36 0.039zm-0.121 3.363c0.453 0.934 0.856 2.117 1.203 3.559 0.051 0 0.133-0.012 0.238-0.04-0.078-0.265-0.144-0.601-0.199-1-0.187-0.906-0.375-1.761-0.558-2.562-0.215 0-0.442 0.016-0.684 0.043zm-0.719-1.203-0.199-0.317c0.375-0.054 0.758-0.109 1.16-0.16-0.105-0.32-0.215-0.64-0.32-0.961-0.082-0.215-0.149-0.441-0.199-0.679-0.586 0.05-1.176 0.117-1.762 0.199 0.586 0.851 1.027 1.492 1.32 1.918zm0.282-4.278c0.613-0.054 1.238-0.082 1.878-0.082 1.922 0 3.668 0.293 5.243 0.883 0.265-0.297 0.652-0.734 1.156-1.32 1.601-2.027 2.547-3.242 2.844-3.641 1.172-1.629 2.05-3.066 2.636-4.32l0.121-0.16h-0.039l0.321-0.68c0.746-1.894 1.265-3.469 1.558-4.719 0.508-2 0.668-3.843 0.481-5.523 0-1.254-0.067-4.344-0.199-9.277 0.027-0.586 0.011-1.243-0.04-1.961v-0.239c-0.109-3.574-0.242-7.949-0.402-13.121-3.894-2.508-8.398-3.761-13.519-3.761-1.735 0-3.399 0.148-5 0.441-0.106 16.934-0.106 26.039 0 27.32 0.586-0.054 1.16-0.082 1.718-0.082 2.668 0 4.735 0.11 6.203 0.321 2.719 0.347 4.305 1.054 4.758 2.121 0.453 1.011 0.426 2.425-0.078 4.238-0.562 2.027-1.535 3.562-2.922 4.602-0.16 0.105-0.304 0.214-0.441 0.32h-0.039c-1.735 1.094-4.266 1.601-7.598 1.519 0.133 1.039 0.32 2.2 0.559 3.481 0.265 1.332 0.535 2.547 0.801 3.64zm15.519-46.359c-0.027-0.43-0.039-0.855-0.039-1.281-0.426-0.641-1.309-1.281-2.641-1.922-2.695-1.254-6.293-1.879-10.8-1.879-1.868 0-3.559 0.106-5.079 0.32h0.079v1.36c1.492-0.211 3.148-0.321 4.961-0.321 6.48 0 10.984 1.243 13.519 3.723zm-26.879-0.082c1.758-1.68 4.426-2.773 8-3.281v-1.36c-2.054 0.321-3.828 0.829-5.32 1.52l-2.641 1.922c0 0.398-0.015 0.801-0.039 1.199zm8.039 26.32c-0.133-1.121-0.148-10.214-0.039-27.281-2.906 0.586-5.586 1.656-8.043 3.203-0.453 14.371-0.679 22.614-0.679 24.719 0 0.664 0.082 1.426 0.242 2.281 0.133 1.973 0.824 4.598 2.078 7.879l0.32 0.68h-0.039l0.121 0.16c0.586 1.254 1.465 2.691 2.637 4.32 0.297 0.399 1.242 1.614 2.844 3.641l1.078 1.16c0.773-0.269 1.574-0.457 2.398-0.562-0.265-1.118-0.531-2.36-0.797-3.719-0.242-1.309-0.429-2.465-0.562-3.481-0.985-0.027-2.028-0.093-3.117-0.199-0.297-0.027-0.575-0.094-0.844-0.199l-0.199-0.043c-0.559-0.184-1.106-0.504-1.641-0.957l-0.359-0.32c-0.879-0.829-1.614-1.922-2.2-3.282l-0.398-1.039c-0.586-1.679-0.668-3.027-0.242-4.039 0.027-0.109 0.066-0.203 0.121-0.281 0.133-0.242 0.305-0.453 0.519-0.641l0.082-0.078c0.051-0.027 0.106-0.066 0.161-0.121 0.824-0.508 2.089-0.945 3.797-1.32 0.96-0.215 1.882-0.375 2.761-0.481zm2.36 18.481c0.054 0.215 0.054 0.398 0 0.558-0.079 0.215-0.215 0.336-0.399 0.36-0.16 0.054-0.32 0.027-0.48-0.078-0.188-0.133-0.309-0.305-0.36-0.52-0.054-0.187-0.043-0.387 0.039-0.601 0.079-0.184 0.2-0.293 0.36-0.321 0.426-0.133 0.707 0.067 0.84 0.602zm1.679 0.84c-0.16 0.027-0.304-0.039-0.441-0.2-0.133-0.132-0.211-0.308-0.238-0.519-0.028-0.215 0.027-0.414 0.16-0.602 0.105-0.16 0.238-0.238 0.398-0.238 0.188-0.027 0.348 0.024 0.481 0.16 0.132 0.16 0.215 0.344 0.242 0.559s-0.027 0.414-0.16 0.601c-0.106 0.157-0.254 0.239-0.442 0.239zm-3.558-5.16c0.16-0.055 0.32-0.012 0.48 0.121 0.184 0.105 0.305 0.265 0.36 0.48 0.132 0.477 0 0.797-0.403 0.957-0.398 0.082-0.679-0.117-0.84-0.598-0.132-0.48 0-0.8 0.403-0.96zm3.398 1.199c-0.105 0.16-0.254 0.254-0.437 0.281-0.161 0.027-0.309-0.039-0.442-0.199s-0.215-0.348-0.242-0.563c-0.027-0.211 0.027-0.398 0.16-0.558 0.11-0.16 0.242-0.254 0.403-0.282 0.187-0.023 0.347 0.043 0.48 0.2 0.133 0.16 0.211 0.347 0.238 0.562 0.028 0.215-0.027 0.399-0.16 0.559zm-4.398-18.078c0 0.531-0.215 0.8-0.641 0.8s-0.641-0.269-0.641-0.8c0-0.536 0.215-0.801 0.641-0.801s0.641 0.265 0.641 0.801zm0-4.2c0 0.532-0.215 0.797-0.641 0.797s-0.641-0.265-0.641-0.797c0-0.535 0.215-0.8 0.641-0.8s0.641 0.265 0.641 0.8zm2.718-0.363c0 0.535-0.199 0.801-0.601 0.801-0.426 0-0.637-0.266-0.637-0.801 0-0.504 0.211-0.758 0.637-0.758 0.402 0 0.601 0.254 0.601 0.758zm-0.601 3.442c0.402 0 0.601 0.253 0.601 0.761 0 0.531-0.199 0.797-0.601 0.797-0.426 0-0.637-0.266-0.637-0.797 0-0.508 0.211-0.761 0.637-0.761zm0.601-7.879c0 0.211-0.054 0.398-0.16 0.558-0.132 0.16-0.281 0.242-0.441 0.242-0.184 0-0.332-0.082-0.438-0.242-0.132-0.16-0.199-0.347-0.199-0.558 0-0.215 0.067-0.403 0.199-0.563 0.106-0.16 0.254-0.238 0.438-0.238 0.16 0 0.309 0.078 0.441 0.238 0.106 0.16 0.16 0.348 0.16 0.563zm-3.359-0.481c0.426 0 0.641 0.266 0.641 0.801 0 0.531-0.215 0.797-0.641 0.797s-0.641-0.266-0.641-0.797c0-0.535 0.215-0.801 0.641-0.801zm0-3.121c-0.426 0-0.641-0.266-0.641-0.801 0-0.531 0.215-0.797 0.641-0.797s0.641 0.266 0.641 0.797c0 0.535-0.215 0.801-0.641 0.801zm2.32-1.719c0.106-0.16 0.254-0.242 0.438-0.242 0.16 0 0.309 0.082 0.441 0.242 0.106 0.16 0.16 0.344 0.16 0.559 0 0.535-0.199 0.801-0.601 0.801-0.426 0-0.637-0.266-0.637-0.801 0-0.215 0.067-0.399 0.199-0.559zm0-4.039c0.106-0.16 0.254-0.242 0.438-0.242 0.16 0 0.309 0.082 0.441 0.242 0.106 0.16 0.16 0.344 0.16 0.559 0 0.211-0.054 0.398-0.16 0.558-0.132 0.161-0.281 0.243-0.441 0.243-0.184 0-0.332-0.082-0.438-0.243-0.132-0.16-0.199-0.343-0.199-0.558s0.067-0.399 0.199-0.559zm-2.32 1.68c-0.426 0-0.641-0.27-0.641-0.801 0-0.535 0.215-0.801 0.641-0.801s0.641 0.266 0.641 0.801c0 0.531-0.215 0.801-0.641 0.801zm0-5.801c0.426 0 0.641 0.266 0.641 0.801 0 0.531-0.215 0.797-0.641 0.797s-0.641-0.266-0.641-0.797c0-0.535 0.215-0.801 0.641-0.801zm2.32-0.082c0.106-0.16 0.254-0.238 0.438-0.238 0.16 0 0.309 0.078 0.441 0.238 0.106 0.16 0.16 0.348 0.16 0.563 0 0.211-0.054 0.398-0.16 0.558-0.132 0.16-0.281 0.242-0.441 0.242-0.184 0-0.332-0.082-0.438-0.242-0.132-0.16-0.199-0.347-0.199-0.558 0-0.215 0.067-0.403 0.199-0.563z" inkscape:connector-curvature="0"/>
          </g>
        </g>
      </g>
      <path id="path122" style="fill-rule:evenodd;fill:#c2c2b8" d="m22.441 0.319v1.36h0.2v-1.36h-0.2zm4.68 56.52c-0.055 0.027-0.121 0.027-0.199 0 0.211 0.828 0.398 1.68 0.558 2.562 0.055 0.399 0.122 0.746 0.2 1.039h0.199c-0.078-0.293-0.145-0.64-0.199-1.039-0.184-0.882-0.371-1.734-0.559-2.562zm-1.16-3.281c0.078 0.242 0.144 0.468 0.199 0.683 0.106 0.317 0.215 0.653 0.32 1 0.055 0 0.122-0.015 0.2-0.043-0.106-0.32-0.211-0.64-0.321-0.957-0.078-0.215-0.144-0.441-0.199-0.683h-0.199zm-3.32-22.278c-0.106-1.281-0.106-10.386 0-27.32-0.079 0.027-0.149 0.039-0.2 0.039-0.082 12.188-0.093 20.602-0.039 25.242l0.039 2.039h0.2zm2.961 20.16c-0.266-1.093-0.536-2.308-0.801-3.64-0.239-1.281-0.426-2.442-0.559-3.481-0.082 0.028-0.148 0.028-0.203 0 0.137 1.039 0.32 2.2 0.563 3.481 0.265 1.359 0.531 2.586 0.8 3.68 0.078 0 0.145-0.012 0.2-0.04z" inkscape:connector-curvature="0"/>
      <path id="path124" style="fill-rule:evenodd;fill:#6e6e68" d="m22.441 1.679v-1.36l-0.199 0.039v1.36c0.051 0 0.117-0.012 0.199-0.039zm4.481 55.16c-0.055 0.027-0.121 0.039-0.199 0.039 0.183 0.801 0.371 1.656 0.558 2.562 0.055 0.399 0.121 0.735 0.199 1h0.2c-0.078-0.293-0.145-0.64-0.2-1.039-0.16-0.882-0.347-1.734-0.558-2.562zm-0.442-1.598c-0.105-0.347-0.214-0.683-0.32-1-0.055-0.215-0.121-0.441-0.199-0.683-0.055 0.027-0.121 0.043-0.199 0.043 0.05 0.238 0.117 0.464 0.199 0.679 0.105 0.321 0.215 0.641 0.32 0.961h0.199zm-4.238-51.203c-0.109 17.067-0.094 26.16 0.039 27.281 0.055 0 0.106-0.011 0.16-0.039l-0.039-2.039c-0.054-4.64-0.043-13.054 0.039-25.242-0.082 0-0.148 0.016-0.199 0.039zm3.16 47.442c-0.269-1.094-0.535-2.321-0.8-3.68-0.243-1.281-0.426-2.442-0.563-3.481-0.078 0.028-0.144 0.028-0.199 0 0.133 1.016 0.32 2.172 0.562 3.481 0.266 1.359 0.532 2.601 0.797 3.719 0.082 0 0.149-0.012 0.203-0.039z" inkscape:connector-curvature="0"/>
      <g id="g126">
        <g id="g128">
          <g id="g134">
            <path id="path142" style="fill-rule:evenodd;fill:url(#linearGradient136)" d="m26.68 55.198c-0.078 0.028-0.145 0.043-0.2 0.043h-0.199c-0.402 0.051-0.785 0.106-1.16 0.16l0.199 0.317 0.68 1.203h0.039c0.242-0.027 0.469-0.043 0.684-0.043 0.078 0 0.144-0.012 0.199-0.039 0.078 0.027 0.144 0.027 0.199 0h0.481c0.718 0 1.371 0.039 1.96 0.121l0.719-1.199 0.16-0.281c-0.988-0.188-1.949-0.282-2.879-0.282h-0.882z" inkscape:connector-curvature="0"/>
          </g>
        </g>
      </g>
      <g id="g144">
        <g id="g146">
          <g id="g152">
            <path id="path160" style="fill-rule:evenodd;fill:url(#linearGradient154)" d="m32.723 52.241c-1.575-0.59-3.321-0.883-5.243-0.883-0.64 0-1.265 0.028-1.878 0.082-0.055 0.028-0.122 0.04-0.2 0.04-0.054 0.027-0.121 0.039-0.203 0.039-0.824 0.105-1.625 0.293-2.398 0.562h-0.039l0.16 0.16c0.398 0.586 0.758 1.106 1.078 1.559 0.586-0.082 1.176-0.149 1.762-0.199 0.078 0 0.144-0.016 0.199-0.043h0.199c0.453-0.024 0.906-0.039 1.36-0.039 1.281 0 2.613 0.121 4 0.359l0.402-0.559 0.598-0.879 0.203-0.199z" inkscape:connector-curvature="0"/>
          </g>
        </g>
      </g>
      <g id="g162">
        <g id="g164">
          <g id="g170">
            <path id="path178" style="fill-rule:evenodd;fill:url(#linearGradient172)" d="m35.32 33.64 0.121 0.359c-0.961-1.387-3.32-2.187-7.082-2.398-2.773-0.161-5.304-0.043-7.597 0.359-2.321 0.398-3.95 1.039-4.883 1.918-0.211 1.922-0.012 3.574 0.601 4.961 1.016 2.375 2.602 3.894 4.762 4.562 2.453 0.774 5.985 0.571 10.598-0.601h0.039c0.137-0.106 0.281-0.215 0.441-0.32 1.387-1.04 2.36-2.575 2.922-4.602 0.504-1.813 0.531-3.227 0.078-4.238zm-17.281 9.281c0.535 0.453 1.082 0.773 1.641 0.957-0.133-0.051-0.278-0.117-0.438-0.199-0.43-0.211-0.828-0.465-1.203-0.758z" inkscape:connector-curvature="0"/>
          </g>
        </g>
      </g>
      <path id="path180" style="fill-rule:evenodd;fill:#b9b9b5" d="m22.281 31.319c-0.879 0.106-1.801 0.266-2.761 0.481-1.708 0.375-2.973 0.812-3.797 1.32-0.055 0.055-0.11 0.094-0.161 0.121l-0.082 0.078c-0.214 0.188-0.386 0.399-0.519 0.641l0.519 0.32 0.2-0.242 0.199-0.16c0.933-0.879 2.562-1.52 4.883-1.918 2.293-0.402 4.824-0.52 7.597-0.359 3.762 0.211 6.121 1.011 7.082 2.398l-0.121-0.359c-0.453-1.067-2.039-1.774-4.758-2.121-1.468-0.211-3.535-0.321-6.203-0.321-0.558 0-1.132 0.028-1.718 0.082h-0.2c-0.054 0.028-0.105 0.039-0.16 0.039z" inkscape:connector-curvature="0"/>
      <g id="g182">
        <g id="g184">
          <g id="g190">
            <path id="path202" style="fill-rule:evenodd;fill:url(#radialGradient192)" d="m24.641 49.8c-0.133-0.535-0.414-0.735-0.84-0.602-0.16 0.028-0.281 0.137-0.36 0.321-0.082 0.214-0.093 0.414-0.039 0.601 0.051 0.215 0.172 0.387 0.36 0.52 0.16 0.105 0.32 0.132 0.48 0.078 0.184-0.024 0.32-0.145 0.399-0.36 0.054-0.16 0.054-0.343 0-0.558z" inkscape:connector-curvature="0"/>
          </g>
        </g>
      </g>
      <g id="g204">
        <g id="g206">
          <g id="g212">
            <path id="path224" style="fill-rule:evenodd;fill:url(#radialGradient214)" d="m26.32 50.64c0.188 0 0.336-0.082 0.442-0.239 0.133-0.187 0.183-0.386 0.16-0.601-0.027-0.215-0.11-0.399-0.242-0.559-0.133-0.136-0.293-0.187-0.481-0.16-0.16 0-0.293 0.078-0.398 0.238-0.133 0.188-0.188 0.387-0.16 0.602 0.027 0.211 0.105 0.387 0.238 0.519 0.137 0.161 0.281 0.227 0.441 0.2z" inkscape:connector-curvature="0"/>
          </g>
        </g>
      </g>
      <g id="g226">
        <g id="g228">
          <g id="g234">
            <path id="path246" style="fill-rule:evenodd;fill:url(#radialGradient236)" d="m22.762 45.48c-0.403 0.16-0.535 0.48-0.403 0.96 0.161 0.481 0.442 0.68 0.84 0.598 0.403-0.16 0.535-0.48 0.403-0.957-0.055-0.215-0.176-0.375-0.36-0.48-0.16-0.133-0.32-0.176-0.48-0.121z" inkscape:connector-curvature="0"/>
          </g>
        </g>
      </g>
      <path id="path248" style="fill-rule:evenodd;fill:#3d3d3c" d="m24.242 44.319c3.332 0.082 5.863-0.425 7.598-1.519-4.613 1.172-8.145 1.375-10.598 0.601-2.16-0.668-3.75-2.187-4.762-4.562-0.613-1.387-0.812-3.039-0.601-4.961l-0.199 0.16-0.2 0.242-0.238 0.36-0.16 0.398-0.082 0.442v0.039l0.039 0.48c0 0.293 0.066 0.68 0.203 1.16v0.039l0.199 0.68c0.051 0.269 0.133 0.523 0.239 0.762 0.508 1.652 1.695 3.332 3.562 5.039 0.16 0.082 0.305 0.148 0.438 0.199l0.199 0.043c0.269 0.105 0.547 0.172 0.844 0.199 1.089 0.106 2.132 0.172 3.117 0.199 0.055 0.028 0.121 0.028 0.199 0 0.055 0.028 0.121 0.028 0.203 0z" inkscape:connector-curvature="0"/>
      <g id="g250">
        <g id="g252">
          <g id="g258">
            <path id="path270" style="fill-rule:evenodd;fill:url(#radialGradient260)" d="m26.16 46.679c0.133-0.16 0.188-0.348 0.16-0.559-0.027-0.215-0.105-0.402-0.238-0.562-0.137-0.157-0.293-0.223-0.48-0.2-0.161 0.028-0.293 0.122-0.403 0.282-0.133 0.16-0.183 0.347-0.16 0.558 0.027 0.215 0.109 0.403 0.242 0.563s0.281 0.226 0.442 0.199c0.183-0.027 0.332-0.121 0.437-0.281z" inkscape:connector-curvature="0"/>
          </g>
        </g>
      </g>
      <path id="path272" style="fill-rule:evenodd;fill:#8a8a87" d="m18.039 42.921c0.375 0.293 0.773 0.547 1.203 0.758-1.867-1.707-3.054-3.387-3.562-5.039-0.106-0.239-0.184-0.493-0.239-0.762l-0.199-0.68v-0.039c-0.137-0.48-0.203-0.867-0.203-1.16l-0.039-0.48v-0.039l0.082-0.442 0.16-0.398 0.238-0.36-0.519-0.32c-0.055 0.078-0.094 0.172-0.121 0.281-0.426 1.012-0.348 2.36 0.242 4.039l0.398 1.039c0.586 1.36 1.321 2.453 2.2 3.282l0.359 0.32z" inkscape:connector-curvature="0"/>
      <g id="g274">
        <g id="g276">
          <g id="g282">
            <path id="path294" style="fill-rule:evenodd;fill:url(#radialGradient284)" d="m21.762 28.601c0-0.536-0.215-0.801-0.641-0.801s-0.641 0.265-0.641 0.801c0 0.531 0.215 0.8 0.641 0.8s0.641-0.269 0.641-0.8z" inkscape:connector-curvature="0"/>
          </g>
        </g>
      </g>
      <g id="g296">
        <g id="g298">
          <g id="g304">
            <path id="path316" style="fill-rule:evenodd;fill:url(#radialGradient306)" d="m21.762 24.401c0-0.535-0.215-0.8-0.641-0.8s-0.641 0.265-0.641 0.8c0 0.532 0.215 0.797 0.641 0.797s0.641-0.265 0.641-0.797z" inkscape:connector-curvature="0"/>
          </g>
        </g>
      </g>
      <g id="g318">
        <g id="g320">
          <g id="g326">
            <path id="path338" style="fill-rule:evenodd;fill:url(#radialGradient328)" d="m23.879 27.48c-0.426 0-0.637 0.253-0.637 0.761 0 0.531 0.211 0.797 0.637 0.797 0.402 0 0.601-0.266 0.601-0.797 0-0.508-0.199-0.761-0.601-0.761z" inkscape:connector-curvature="0"/>
          </g>
        </g>
      </g>
      <g id="g340">
        <g id="g342">
          <g id="g348">
            <path id="path360" style="fill-rule:evenodd;fill:url(#radialGradient350)" d="m24.48 24.038c0-0.504-0.199-0.758-0.601-0.758-0.426 0-0.637 0.254-0.637 0.758 0 0.535 0.211 0.801 0.637 0.801 0.402 0 0.601-0.266 0.601-0.801z" inkscape:connector-curvature="0"/>
          </g>
        </g>
      </g>
      <g id="g362">
        <g id="g364">
          <g id="g370">
            <path id="path382" style="fill-rule:evenodd;fill:url(#radialGradient372)" d="m24.48 19.601c0-0.215-0.054-0.403-0.16-0.563-0.132-0.16-0.281-0.238-0.441-0.238-0.184 0-0.332 0.078-0.438 0.238-0.132 0.16-0.199 0.348-0.199 0.563 0 0.211 0.067 0.398 0.199 0.558 0.106 0.16 0.254 0.242 0.438 0.242 0.16 0 0.309-0.082 0.441-0.242 0.106-0.16 0.16-0.347 0.16-0.558z" inkscape:connector-curvature="0"/>
          </g>
        </g>
      </g>
      <g id="g384">
        <g id="g386">
          <g id="g392">
            <path id="path404" style="fill-rule:evenodd;fill:url(#radialGradient394)" d="m21.121 19.12c-0.426 0-0.641 0.266-0.641 0.801 0 0.531 0.215 0.797 0.641 0.797s0.641-0.266 0.641-0.797c0-0.535-0.215-0.801-0.641-0.801z" inkscape:connector-curvature="0"/>
          </g>
        </g>
      </g>
      <g id="g406">
        <g id="g408">
          <g id="g414">
            <path id="path426" style="fill-rule:evenodd;fill:url(#radialGradient416)" d="m21.121 15.999c0.426 0 0.641-0.266 0.641-0.801 0-0.531-0.215-0.797-0.641-0.797s-0.641 0.266-0.641 0.797c0 0.535 0.215 0.801 0.641 0.801z" inkscape:connector-curvature="0"/>
          </g>
        </g>
      </g>
      <g id="g428">
        <g id="g430">
          <g id="g436">
            <path id="path448" style="fill-rule:evenodd;fill:url(#radialGradient438)" d="m23.441 14.28c-0.132 0.16-0.199 0.344-0.199 0.559 0 0.535 0.211 0.801 0.637 0.801 0.402 0 0.601-0.266 0.601-0.801 0-0.215-0.054-0.399-0.16-0.559-0.132-0.16-0.281-0.242-0.441-0.242-0.184 0-0.332 0.082-0.438 0.242z" inkscape:connector-curvature="0"/>
          </g>
        </g>
      </g>
      <g id="g450">
        <g id="g452">
          <g id="g458">
            <path id="path470" style="fill-rule:evenodd;fill:url(#radialGradient460)" d="m23.441 10.241c-0.132 0.16-0.199 0.344-0.199 0.559 0 0.211 0.067 0.398 0.199 0.558 0.106 0.161 0.254 0.243 0.438 0.243 0.16 0 0.309-0.082 0.441-0.243 0.106-0.16 0.16-0.343 0.16-0.558s-0.054-0.399-0.16-0.559c-0.132-0.16-0.281-0.242-0.441-0.242-0.184 0-0.332 0.082-0.438 0.242z" inkscape:connector-curvature="0"/>
          </g>
        </g>
      </g>
      <g id="g472">
        <g id="g474">
          <g id="g480">
            <path id="path492" style="fill-rule:evenodd;fill:url(#radialGradient482)" d="m21.121 11.921c0.426 0 0.641-0.27 0.641-0.801 0-0.535-0.215-0.801-0.641-0.801s-0.641 0.266-0.641 0.801c0 0.531 0.215 0.801 0.641 0.801z" inkscape:connector-curvature="0"/>
          </g>
        </g>
      </g>
      <g id="g494">
        <g id="g496">
          <g id="g502">
            <path id="path514" style="fill-rule:evenodd;fill:url(#radialGradient504)" d="m21.121 6.12c-0.426 0-0.641 0.266-0.641 0.801 0 0.531 0.215 0.797 0.641 0.797s0.641-0.266 0.641-0.797c0-0.535-0.215-0.801-0.641-0.801z" inkscape:connector-curvature="0"/>
          </g>
        </g>
      </g>
      <g id="g516">
        <g id="g518">
          <g id="g524">
            <path id="path532" style="fill-rule:evenodd;fill:url(#linearGradient526)" d="m41.16 7.28v-0.961c-0.105 0.161-0.254 0.239-0.437 0.239-0.188 0-0.336-0.078-0.442-0.239-0.133-0.132-0.199-0.304-0.199-0.519 0-0.508 0.211-0.762 0.641-0.762 0.156 0 0.293 0.043 0.398 0.121v-0.078c-2.535-2.48-7.039-3.723-13.519-3.723-1.813 0-3.469 0.11-4.961 0.321h-0.2c-0.082 0.027-0.148 0.039-0.199 0.039-3.574 0.508-6.242 1.601-8 3.281v0.32c0.024-0.027 0.067-0.039 0.117-0.039 0.243 0 0.364 0.254 0.364 0.758 0 0.535-0.121 0.801-0.364 0.801-0.078 0-0.132-0.027-0.16-0.078l-0.039 0.48h0.039c2.457-1.547 5.137-2.617 8.043-3.203 0.051-0.023 0.117-0.039 0.199-0.039 0.051 0 0.121-0.012 0.2-0.039 1.601-0.293 3.265-0.441 5-0.441 5.121 0 9.625 1.253 13.519 3.761zm-3.519-2.359c-0.133-0.137-0.2-0.309-0.2-0.52 0-0.507 0.215-0.761 0.641-0.761 0.398 0 0.598 0.254 0.598 0.761 0 0.184-0.051 0.36-0.16 0.52-0.133 0.16-0.278 0.238-0.438 0.238-0.187 0-0.336-0.078-0.441-0.238zm-5.399-2.723c0.133 0.137 0.199 0.309 0.199 0.52 0 0.508-0.214 0.762-0.64 0.762s-0.641-0.254-0.641-0.762c0-0.211 0.067-0.383 0.199-0.52 0.11-0.16 0.254-0.238 0.442-0.238 0.187 0 0.332 0.078 0.441 0.238zm2.117 1.121c0-0.214 0.067-0.386 0.203-0.519 0.106-0.16 0.25-0.242 0.438-0.242s0.336 0.082 0.441 0.242c0.133 0.133 0.2 0.305 0.2 0.519 0 0.508-0.215 0.762-0.641 0.762s-0.641-0.254-0.641-0.762zm-6.398-0.398c-0.133-0.137-0.199-0.309-0.199-0.52 0-0.507 0.211-0.761 0.64-0.761 0.426 0 0.637 0.254 0.637 0.761 0 0.211-0.066 0.383-0.199 0.52-0.106 0.16-0.254 0.238-0.438 0.238-0.187 0-0.336-0.078-0.441-0.238zm-9 1c0 0.504-0.215 0.758-0.641 0.758-0.425 0-0.64-0.254-0.64-0.758 0-0.215 0.066-0.387 0.199-0.52 0.109-0.16 0.254-0.242 0.441-0.242 0.188 0 0.336 0.082 0.442 0.242 0.133 0.133 0.199 0.305 0.199 0.52zm-2.441 1.078c0 0.215-0.051 0.387-0.161 0.52-0.105 0.16-0.226 0.242-0.359 0.242-0.371 0-0.559-0.254-0.559-0.762s0.188-0.758 0.559-0.758c0.348 0 0.52 0.25 0.52 0.758zm7.839-3c0.11-0.16 0.254-0.238 0.442-0.238 0.187 0 0.332 0.078 0.441 0.238 0.133 0.133 0.199 0.309 0.199 0.52 0 0.507-0.214 0.761-0.64 0.761s-0.641-0.254-0.641-0.761c0-0.211 0.067-0.387 0.199-0.52zm-2.757 0.559c0.132 0.136 0.199 0.308 0.199 0.523 0 0.504-0.215 0.758-0.641 0.758s-0.64-0.254-0.64-0.758c0-0.215 0.066-0.387 0.203-0.523 0.105-0.157 0.25-0.239 0.437-0.239 0.188 0 0.336 0.082 0.442 0.239z" inkscape:connector-curvature="0"/>
          </g>
        </g>
      </g>
      <g id="g534">
        <g id="g536">
          <g id="g542">
            <path id="path554" style="fill-rule:evenodd;fill:url(#radialGradient544)" d="m23.441 6.038c-0.132 0.16-0.199 0.348-0.199 0.563 0 0.211 0.067 0.398 0.199 0.558 0.106 0.16 0.254 0.242 0.438 0.242 0.16 0 0.309-0.082 0.441-0.242 0.106-0.16 0.16-0.347 0.16-0.558 0-0.215-0.054-0.403-0.16-0.563-0.132-0.16-0.281-0.238-0.441-0.238-0.184 0-0.332 0.078-0.438 0.238z" inkscape:connector-curvature="0"/>
          </g>
        </g>
      </g>
      <g id="g556">
        <g id="g558">
          <g id="g564">
            <path id="path576" style="fill-rule:evenodd;fill:url(#radialGradient566)" d="m14.199 6.761c0.028 0.051 0.082 0.078 0.16 0.078 0.243 0 0.364-0.266 0.364-0.801 0-0.504-0.121-0.758-0.364-0.758-0.05 0-0.093 0.012-0.117 0.039-0.16 0.082-0.242 0.321-0.242 0.719 0 0.375 0.066 0.613 0.199 0.723z" inkscape:connector-curvature="0"/>
          </g>
        </g>
      </g>
      <g id="g578">
        <g id="g580">
          <g id="g586">
            <path id="path598" style="fill-rule:evenodd;fill:url(#radialGradient588)" d="m16.52 4.999c0-0.508-0.172-0.758-0.52-0.758-0.371 0-0.559 0.25-0.559 0.758s0.188 0.762 0.559 0.762c0.133 0 0.254-0.082 0.359-0.242 0.11-0.133 0.161-0.305 0.161-0.52z" inkscape:connector-curvature="0"/>
          </g>
        </g>
      </g>
      <g id="g600">
        <g id="g602">
          <g id="g608">
            <path id="path620" style="fill-rule:evenodd;fill:url(#radialGradient610)" d="m18.961 3.921c0-0.215-0.066-0.387-0.199-0.52-0.106-0.16-0.254-0.242-0.442-0.242-0.187 0-0.332 0.082-0.441 0.242-0.133 0.133-0.199 0.305-0.199 0.52 0 0.504 0.215 0.758 0.64 0.758 0.426 0 0.641-0.254 0.641-0.758z" inkscape:connector-curvature="0"/>
          </g>
        </g>
      </g>
      <g id="g622">
        <g id="g624">
          <g id="g630">
            <path id="path642" style="fill-rule:evenodd;fill:url(#radialGradient632)" d="m24.359 1.999c-0.132 0.133-0.199 0.309-0.199 0.52 0 0.507 0.215 0.761 0.641 0.761s0.64-0.254 0.64-0.761c0-0.211-0.066-0.387-0.199-0.52-0.109-0.16-0.254-0.238-0.441-0.238-0.188 0-0.332 0.078-0.442 0.238z" inkscape:connector-curvature="0"/>
          </g>
        </g>
      </g>
      <g id="g644">
        <g id="g646">
          <g id="g652">
            <path id="path664" style="fill-rule:evenodd;fill:url(#radialGradient654)" d="m21.602 2.558c-0.106-0.157-0.254-0.239-0.442-0.239-0.187 0-0.332 0.082-0.437 0.239-0.137 0.136-0.203 0.308-0.203 0.523 0 0.504 0.214 0.758 0.64 0.758s0.641-0.254 0.641-0.758c0-0.215-0.067-0.387-0.199-0.523z" inkscape:connector-curvature="0"/>
          </g>
        </g>
      </g>
      <g id="g666">
        <g id="g668">
          <g id="g674">
            <path id="path686" style="fill-rule:evenodd;fill:url(#radialGradient676)" d="m37.641 4.921c0.105 0.16 0.254 0.238 0.441 0.238 0.16 0 0.305-0.078 0.438-0.238 0.109-0.16 0.16-0.336 0.16-0.52 0-0.507-0.2-0.761-0.598-0.761-0.426 0-0.641 0.254-0.641 0.761 0 0.211 0.067 0.383 0.2 0.52z" inkscape:connector-curvature="0"/>
          </g>
        </g>
      </g>
      <g id="g688">
        <g id="g690">
          <g id="g696">
            <path id="path708" style="fill-rule:evenodd;fill:url(#radialGradient698)" d="m41.121 5.159c-0.105-0.078-0.242-0.121-0.398-0.121-0.43 0-0.641 0.254-0.641 0.762 0 0.215 0.066 0.387 0.199 0.519 0.106 0.161 0.254 0.239 0.442 0.239 0.183 0 0.332-0.078 0.437-0.239 0.133-0.132 0.199-0.304 0.199-0.519 0-0.32-0.078-0.535-0.238-0.641z" inkscape:connector-curvature="0"/>
          </g>
        </g>
      </g>
      <g id="g710">
        <g id="g712">
          <g id="g718">
            <path id="path730" style="fill-rule:evenodd;fill:url(#radialGradient720)" d="m32.242 2.198c-0.109-0.16-0.254-0.238-0.441-0.238-0.188 0-0.332 0.078-0.442 0.238-0.132 0.137-0.199 0.309-0.199 0.52 0 0.508 0.215 0.762 0.641 0.762s0.64-0.254 0.64-0.762c0-0.211-0.066-0.383-0.199-0.52z" inkscape:connector-curvature="0"/>
          </g>
        </g>
      </g>
      <g id="g732">
        <g id="g734">
          <g id="g740">
            <path id="path752" style="fill-rule:evenodd;fill:url(#radialGradient742)" d="m34.359 3.319c0 0.508 0.215 0.762 0.641 0.762s0.641-0.254 0.641-0.762c0-0.214-0.067-0.386-0.2-0.519-0.105-0.16-0.253-0.242-0.441-0.242s-0.332 0.082-0.438 0.242c-0.136 0.133-0.203 0.305-0.203 0.519z" inkscape:connector-curvature="0"/>
          </g>
        </g>
      </g>
      <g id="g754">
        <g id="g756">
          <g id="g762">
            <path id="path774" style="fill-rule:evenodd;fill:url(#radialGradient764)" d="m27.961 2.921c0.105 0.16 0.254 0.238 0.441 0.238 0.188 0 0.332-0.078 0.438-0.238 0.133-0.137 0.199-0.309 0.199-0.52 0-0.507-0.211-0.761-0.637-0.761-0.429 0-0.64 0.254-0.64 0.761 0 0.211 0.066 0.383 0.199 0.52z" inkscape:connector-curvature="0"/>
          </g>
        </g>
      </g>
      <path id="path776" style="fill-rule:evenodd;fill:#ffffff" d="m32.082 36.96c0.184-0.133 0.227-0.281 0.117-0.441-0.051-0.161-0.183-0.161-0.398 0-0.188 0.105-0.227 0.242-0.121 0.402 0.054 0.133 0.187 0.144 0.402 0.039zm-15.16 0.48c-0.11-0.105-0.188-0.093-0.242 0.04-0.078 0.16-0.067 0.292 0.043 0.398 0.05 0.137 0.132 0.121 0.238-0.039 0.055-0.188 0.039-0.32-0.039-0.399z" inkscape:connector-curvature="0"/>
      <path id="path778" style="fill-rule:evenodd;fill:#3b3526" d="m31.16 37.64c0.453 0 0.828-0.172 1.121-0.52 0.321-0.32 0.481-0.719 0.481-1.199 0-0.453-0.16-0.856-0.481-1.203-0.293-0.317-0.668-0.477-1.121-0.477-0.426 0-0.801 0.16-1.121 0.477-0.316 0.347-0.477 0.75-0.477 1.203 0 0.48 0.161 0.879 0.477 1.199 0.297 0.348 0.668 0.52 1.121 0.52zm0.922-0.68c-0.215 0.105-0.348 0.094-0.402-0.039-0.106-0.16-0.067-0.297 0.121-0.402 0.215-0.161 0.347-0.161 0.398 0 0.11 0.16 0.067 0.308-0.117 0.441zm-1.562-2.281c0.48-0.293 0.894-0.254 1.242 0.121-0.293-0.082-0.641-0.016-1.039 0.199-0.321 0.16-0.563 0.375-0.723 0.641l-0.121 0.359v-0.48c0.082-0.372 0.297-0.653 0.641-0.84zm-13.84 3.84c0.265-0.079 0.441-0.293 0.519-0.641 0.11-0.344 0.094-0.731-0.039-1.16-0.105-0.426-0.305-0.758-0.598-1-0.269-0.238-0.535-0.317-0.8-0.238-0.266 0.078-0.442 0.292-0.52 0.64-0.082 0.348-0.066 0.735 0.039 1.16 0.133 0.426 0.332 0.758 0.598 1 0.269 0.239 0.535 0.321 0.801 0.239zm0.242-1.079c0.078 0.079 0.094 0.211 0.039 0.399-0.106 0.16-0.188 0.176-0.238 0.039-0.11-0.106-0.121-0.238-0.043-0.398 0.054-0.133 0.132-0.145 0.242-0.04zm-1.199-1.441-0.161 0.082c0.106-0.375 0.333-0.48 0.68-0.32 0.426 0.183 0.68 0.547 0.758 1.078-0.16-0.371-0.426-0.625-0.801-0.758-0.16-0.082-0.32-0.109-0.476-0.082z" inkscape:connector-curvature="0"/>
      <path id="path780" style="fill-rule:evenodd;fill:#63704d" d="m30.52 34.679c-0.344 0.187-0.559 0.468-0.641 0.84v0.48l0.121-0.359c0.16-0.266 0.402-0.481 0.723-0.641 0.398-0.215 0.746-0.281 1.039-0.199-0.348-0.375-0.762-0.414-1.242-0.121zm-14.797 1.32c0.156-0.027 0.316 0 0.476 0.082 0.375 0.133 0.641 0.387 0.801 0.758-0.078-0.531-0.332-0.895-0.758-1.078-0.347-0.16-0.574-0.055-0.68 0.32l0.161-0.082z" inkscape:connector-curvature="0"/>
      <path id="path782" style="fill-rule:evenodd;fill:#cccccc" d="m41.398 22.558c0-0.614-0.011-1.239-0.039-1.879-0.078-1.172-0.359-2.067-0.839-2.68-0.454-0.641-0.973-0.812-1.559-0.519-0.586 0.292-1.094 0.972-1.52 2.039-0.429 1.066-0.64 2.148-0.64 3.242 0 0.957 0.293 1.758 0.879 2.398 0.453 0.508 0.961 0.813 1.519 0.922 0.934 0.133 1.574-0.441 1.922-1.723 0.16-0.531 0.254-1.132 0.277-1.8z" inkscape:connector-curvature="0"/>
      <g id="g784">
        <g id="g786">
          <g id="g792">
            <path id="path802" style="fill-rule:evenodd;fill:url(#linearGradient794)" d="m56.602 11.96-0.04 0.199c-1.468-1.172-3.054-1.758-4.761-1.758-1.52 0-2.973 0.481-4.36 1.438 0.426 2.109 0.641 4.308 0.641 6.601 0 0.668-0.203 1.122-0.602 1.36-0.425 0.265-1.304 0.402-2.64 0.402h-4.758c-0.828 0-1.496 0.078-2 0.238-0.402 0.161-0.723 0.602-0.961 1.321-0.242 0.801-0.254 1.613-0.039 2.441 0.238 0.774 0.758 1.41 1.559 1.918 0.64 0.399 1.199 0.602 1.679 0.602l4.559 0.199c3.309-0.027 5.707-0.426 7.203-1.199 1.414-0.774 2.414-2.055 3-3.84 0.32-0.961 0.574-2.442 0.758-4.442 0.105-1.199 0.359-3.027 0.762-5.48zm-9.641-2.238c1.281-0.989 2.894-1.481 4.84-1.481 2.133 0 3.84 0.571 5.121 1.719 0.051-0.32 0.105-0.652 0.16-1l-0.562-1c-0.504-0.746-1.067-1.332-1.68-1.758-0.692-0.453-1.625-0.683-2.801-0.683-0.957 0-1.945 0.148-2.957 0.441-0.723 0.187-1.309 0.785-1.762 1.801l-0.48 1.441 0.121 0.52z" inkscape:connector-curvature="0"/>
          </g>
        </g>
      </g>
      <g id="g804">
        <g id="g806">
          <g id="g812">
            <path id="path820" style="fill-rule:evenodd;fill:url(#linearGradient814)" d="m47.441 11.839c1.387-0.957 2.84-1.438 4.36-1.438 1.707 0 3.293 0.586 4.761 1.758l0.04-0.199c0.105-0.641 0.21-1.305 0.32-2-1.281-1.148-2.988-1.719-5.121-1.719-1.946 0-3.559 0.492-4.84 1.481l0.441 2.16 0.039-0.043z" inkscape:connector-curvature="0"/>
          </g>
        </g>
      </g>
    </g>
  </g>
<metadata><rdf:RDF><cc:Work><dc:format>image/svg+xml</dc:format><dc:type rdf:resource="http://purl.org/dc/dcmitype/StillImage"/><cc:license rdf:resource="http://creativecommons.org/licenses/publicdomain/"/><dc:publisher><cc:Agent rdf:about="http://openclipart.org/"><dc:title>Openclipart</dc:title></cc:Agent></dc:publisher></cc:Work><cc:License rdf:about="http://creativecommons.org/licenses/publicdomain/"><cc:permits rdf:resource="http://creativecommons.org/ns#Reproduction"/><cc:permits rdf:resource="http://creativecommons.org/ns#Distribution"/><cc:permits rdf:resource="http://creativecommons.org/ns#DerivativeWorks"/></cc:License></rdf:RDF></metadata></svg>
